<svg xmlns="http://www.w3.org/2000/svg" viewBox="0 0 500 500" fill="#0F3D2E">
  <path d="M345.3,210.3v79.3c0,1.6,1.3,2.9,2.9,2.9h135.8c1.6,0,2.9-1.3,2.9-2.9v-79.3c0-1.6-1.3-2.9-2.9-2.9H348.3C346.6,207.4,345.3,208.7,345.3,210.3z"/>
  <path d="M13,210.3v79.3c0,1.6,1.3,2.9,2.9,2.9h135.8c1.6,0,2.9-1.3,2.9-2.9v-79.3c0-1.6-1.3-2.9-2.9-2.9H15.9C14.3,207.4,13,208.7,13,210.3z"/>
  <path d="M263.3,147.6l68.7,39.7c1.4,0.8,3.2,0.3,4-1.1l67.9-117.6c0.8-1.4,0.3-3.2-1.1-4l-68.7-39.7c-1.4-0.8-3.2-0.3-4,1.1l-67.9,117.6C261.4,145,261.9,146.8,263.3,147.6z"/>
  <path d="M168,187.3l68.7-39.7c1.4-0.8,1.9-2.6,1.1-4L169.9,26c-0.8-1.4-2.6-1.9-4-1.1L97.2,64.6c-1.4,0.8-1.9,2.6-1.1,4L164,186.2C164.8,187.6,166.6,188.1,168,187.3z"/>
  <path d="M152.3,333.5l-56.2,97.9c-0.8,1.4-0.3,3.2,1.1,4l68.7,39.7c1.4,0.8,3.2,0.3,4-1.1l79.7-138.8L330.1,474c0.8,1.4,2.6,1.9,4,1.1l68.7-39.7c1.4-0.8,1.9-2.6,1.1-4l-56.9-98c-1-1.8-2.9-2.9-5-2.9H157.2C155.2,330.6,153.3,331.7,152.3,333.5z"/>
</svg>
